<svg width="22" height="33" viewBox="0 0 22 33" fill="none" xmlns="http://www.w3.org/2000/svg">
<path d="M18.9334 0.737305H3.02932C1.72644 0.737305 0.670654 1.79306 0.670654 3.09593V30.0071C0.670654 31.31 1.72644 32.3657 3.02932 32.3657H18.9334C20.2363 32.3657 21.2921 31.31 21.2921 30.0071V3.09593C21.2921 1.81552 20.2138 0.737305 18.9334 0.737305Z" fill="white"/>
<path d="M20.1466 4.53369H1.79395V26.7275H20.1466V4.53369Z" fill="#404040"/>
<path d="M14.7328 2.15234H7.20758C6.91556 2.15234 6.646 2.39944 6.646 2.71393C6.646 3.02842 6.89309 3.27551 7.20758 3.27551H14.7328C15.0249 3.27551 15.2944 3.02842 15.2944 2.71393C15.2944 2.4219 15.0473 2.15234 14.7328 2.15234Z" fill="#6639A6"/>
<path d="M9.18457 29.4006C9.18457 28.4122 9.99326 27.5811 10.9816 27.5811C11.97 27.5811 12.8012 28.3897 12.8012 29.4006C12.8012 30.389 11.9925 31.1976 10.9816 31.1976C9.99326 31.2201 9.18457 30.4114 9.18457 29.4006Z" fill="#6639A6"/>
</svg>
