<svg width="90" height="67" viewBox="0 0 90 67" fill="none" xmlns="http://www.w3.org/2000/svg">
<path d="M89.135 11.4574C88.7049 12.15 88.2178 12.8057 87.6785 13.4176L35.9242 64.9394C35.6585 65.3388 35.2977 65.6663 34.8742 65.893C34.4506 66.1196 33.9774 66.2382 33.4967 66.2382C33.016 66.2382 32.5428 66.1196 32.1192 65.893C31.6957 65.6663 31.3349 65.3388 31.0692 64.9394C21.3592 54.969 11.6492 44.9825 1.9392 34.9798C1.57278 34.7056 1.27835 34.347 1.08104 33.9348C0.883729 33.5225 0.789391 33.0688 0.806085 32.6123C0.822779 32.1559 0.950001 31.7102 1.1769 31.3134C1.4038 30.9165 1.72362 30.5803 2.1091 30.3334L9.3916 23.7752C9.65304 23.4475 9.98532 23.1829 10.3636 23.001C10.7419 22.8191 11.1564 22.7247 11.5764 22.7247C11.9964 22.7247 12.4109 22.8191 12.7892 23.001C13.1674 23.1829 13.4997 23.4475 13.7611 23.7752L30.9721 41.2476C32.7684 43.0626 34.1036 43.0868 35.8271 41.2476L76.0265 1.34181C76.2883 0.937219 76.6476 0.604517 77.0717 0.374136C77.4958 0.143755 77.971 0.0230408 78.454 0.0230408C78.9369 0.0230408 79.4122 0.143755 79.8363 0.374136C80.2603 0.604517 80.6197 0.937219 80.8815 1.34181C83.1633 3.61661 85.4452 5.89141 87.6785 8.19041C88.194 8.79256 88.6646 9.43154 89.0864 10.1022L89.135 11.4574Z" fill="#8A33FD"/>
</svg>
